<?xml version="1.0" standalone="no"?>
<!DOCTYPE svg PUBLIC "-//W3C//DTD SVG 20010904//EN"
 "http://www.w3.org/TR/2001/REC-SVG-20010904/DTD/svg10.dtd">
<svg version="1.0" xmlns="http://www.w3.org/2000/svg"
 width="899.000000pt" height="889.000000pt" viewBox="0 0 899.000000 889.000000"
 preserveAspectRatio="xMidYMid meet">
<metadata>
Created by potrace 1.16, written by Peter Selinger 2001-2019
</metadata>
<g transform="translate(0.000000,889.000000) scale(0.100000,-0.100000)"
fill="#FF0000" stroke="none">
<path d="M200 8731 c0 -3 516 -522 1146 -1151 929 -928 1145 -1148 1140 -1165
-3 -11 -11 -43 -19 -70 -34 -118 -64 -365 -85 -695 l-8 -125 -89 -160 c-48
-88 -108 -198 -133 -245 -24 -47 -61 -114 -82 -150 -21 -36 -57 -101 -80 -145
-24 -44 -65 -120 -92 -170 -69 -128 -82 -154 -77 -159 7 -7 764 -25 771 -18 3
4 11 41 17 81 7 41 17 82 24 90 13 16 139 165 413 487 89 104 198 234 244 289
88 106 150 154 212 163 46 6 65 -8 74 -54 16 -87 8 -102 -239 -432 -205 -274
-398 -534 -1050 -1411 -93 -124 -271 -363 -396 -531 -125 -168 -281 -377 -346
-465 -171 -230 -594 -798 -757 -1015 -76 -102 -138 -188 -138 -192 0 -4 6 -5
13 -3 6 2 215 54 462 114 248 61 464 115 480 121 17 5 77 20 135 34 58 13 177
42 265 64 88 23 435 109 770 192 336 83 963 239 1395 346 432 107 895 222
1030 255 135 33 286 71 335 84 50 14 173 45 275 69 l184 46 106 -102 c58 -57
157 -153 220 -215 63 -61 131 -126 150 -144 53 -49 389 -371 953 -914 280
-270 577 -555 660 -634 84 -79 267 -255 407 -391 243 -236 320 -307 320 -297
0 2 -57 121 -126 263 -70 143 -178 364 -240 493 -63 128 -114 235 -114 236 0
2 -85 177 -190 390 -104 213 -190 389 -190 390 0 1 -66 137 -146 301 -80 165
-165 340 -189 389 -24 50 -107 221 -185 380 -78 160 -161 331 -185 380 -24 50
-89 185 -145 300 -56 116 -130 269 -165 340 -249 519 -656 1349 -665 1358 -4
5 -146 -122 -316 -282 -169 -160 -318 -294 -331 -297 -60 -15 -123 42 -107 96
7 23 244 286 404 450 19 20 94 99 165 175 72 77 210 224 308 327 97 103 177
194 177 201 0 26 -309 269 -513 403 -559 369 -1242 616 -1795 650 -72 4 -112
11 -112 18 0 6 13 150 30 321 16 170 28 311 25 313 -6 6 8 17 -560 -437 -269
-215 -495 -389 -502 -387 -6 3 -160 98 -340 212 -394 249 -790 499 -893 564
-41 26 -169 107 -285 180 -115 73 -244 154 -285 180 -41 26 -138 87 -215 135
-77 48 -197 124 -267 169 -70 45 -153 97 -185 117 -32 21 -151 96 -265 167
-115 72 -208 127 -208 123z m2882 -2298 c1 -65 3 -143 4 -173 l1 -55 -181
-182 c-99 -101 -184 -179 -188 -175 -4 4 -13 69 -19 144 l-12 137 89 98 c49
54 95 104 102 112 7 7 52 58 99 112 47 55 89 99 94 99 5 0 10 -53 11 -117z
m993 -1495 c88 -95 196 -211 240 -257 89 -94 186 -198 292 -311 38 -41 144
-154 234 -250 389 -415 534 -572 537 -580 4 -12 -16 -16 -168 -35 -69 -9 -246
-32 -395 -51 -148 -19 -306 -39 -350 -44 -44 -5 -127 -16 -185 -24 -129 -19
-693 -92 -850 -111 -63 -8 -168 -21 -232 -29 -164 -22 -333 -44 -468 -61 -63
-8 -130 -17 -147 -20 -18 -3 -33 -2 -33 3 0 5 50 81 111 168 62 87 135 193
164 234 28 41 118 170 200 285 82 116 185 263 229 327 45 64 131 188 192 275
61 87 145 208 188 268 209 299 270 385 276 385 3 0 77 -78 165 -172z"/>
</g>
</svg>
